<?xml version="1.0" encoding="UTF-8" standalone="no"?>
<!-- Created with Inkscape (http://www.inkscape.org/) -->

<svg
   xmlns:dc="http://purl.org/dc/elements/1.1/"
   xmlns:cc="http://creativecommons.org/ns#"
   xmlns:rdf="http://www.w3.org/1999/02/22-rdf-syntax-ns#"
   xmlns:svg="http://www.w3.org/2000/svg"
   xmlns="http://www.w3.org/2000/svg"
   xmlns:sodipodi="http://sodipodi.sourceforge.net/DTD/sodipodi-0.dtd"
   xmlns:inkscape="http://www.inkscape.org/namespaces/inkscape"
   width="100"
   height="100"
   id="svg2577"
   sodipodi:version="0.32"
   inkscape:version="0.47 r22583"
   version="1.0"
   sodipodi:docname="tooltip.svgz"
   inkscape:output_extension="org.inkscape.output.svg.inkscape">
  <defs
     id="defs2579">
    <marker
       inkscape:stockid="Arrow1Lstart"
       orient="auto"
       refY="0.0"
       refX="0.0"
       id="Arrow1Lstart"
       style="overflow:visible">
      <path
         id="path5349"
         d="M 0.0,0.0 L 5.0,-5.0 L -12.5,0.0 L 5.0,5.0 L 0.0,0.0 z "
         style="fill-rule:evenodd;stroke:#000000;stroke-width:1.0pt;marker-start:none"
         transform="scale(0.8) translate(12.5,0)" />
    </marker>
    <linearGradient
       id="linearGradient5521">
      <stop
         style="stop-color:#000000;stop-opacity:0.40343347;"
         offset="0"
         id="stop5523" />
      <stop
         id="stop5525"
         offset="0.53686088"
         style="stop-color:#000000;stop-opacity:0.40392157;" />
      <stop
         style="stop-color:#000000;stop-opacity:0;"
         offset="1"
         id="stop5527" />
    </linearGradient>
    <linearGradient
       id="linearGradient5509">
      <stop
         id="stop5511"
         offset="0"
         style="stop-color:#000000;stop-opacity:0.40343347;" />
      <stop
         style="stop-color:#000000;stop-opacity:0.40392157;"
         offset="0.66219062"
         id="stop5515" />
      <stop
         id="stop5513"
         offset="1"
         style="stop-color:#000000;stop-opacity:0;" />
    </linearGradient>
    <linearGradient
       id="linearGradient5487">
      <stop
         style="stop-color:#000000;stop-opacity:0.40343347;"
         offset="0"
         id="stop5489" />
      <stop
         style="stop-color:#000000;stop-opacity:0;"
         offset="1"
         id="stop5491" />
    </linearGradient>
    <linearGradient
       id="linearGradient4139">
      <stop
         style="stop-color:#ffffff;stop-opacity:0.66666669;"
         offset="0"
         id="stop4141" />
      <stop
         style="stop-color:#ffffff;stop-opacity:0;"
         offset="1"
         id="stop4143" />
    </linearGradient>
    <linearGradient
       id="linearGradient3962">
      <stop
         style="stop-color:#000000;stop-opacity:0.27450982;"
         offset="0"
         id="stop3964" />
      <stop
         style="stop-color:#000000;stop-opacity:0.47058824;"
         offset="1"
         id="stop3966" />
    </linearGradient>
    <inkscape:perspective
       sodipodi:type="inkscape:persp3d"
       inkscape:vp_x="0 : 526.18109 : 1"
       inkscape:vp_y="0 : 1000 : 0"
       inkscape:vp_z="744.09448 : 526.18109 : 1"
       inkscape:persp3d-origin="372.04724 : 350.78739 : 1"
       id="perspective2585" />
    <inkscape:perspective
       id="perspective6022"
       inkscape:persp3d-origin="0.5 : 0.33333333 : 1"
       inkscape:vp_z="1 : 0.5 : 1"
       inkscape:vp_y="0 : 1000 : 0"
       inkscape:vp_x="0 : 0.5 : 1"
       sodipodi:type="inkscape:persp3d" />
    <inkscape:perspective
       id="perspective6022-8"
       inkscape:persp3d-origin="0.5 : 0.33333333 : 1"
       inkscape:vp_z="1 : 0.5 : 1"
       inkscape:vp_y="0 : 1000 : 0"
       inkscape:vp_x="0 : 0.5 : 1"
       sodipodi:type="inkscape:persp3d" />
    <inkscape:perspective
       id="perspective6022-2"
       inkscape:persp3d-origin="0.5 : 0.33333333 : 1"
       inkscape:vp_z="1 : 0.5 : 1"
       inkscape:vp_y="0 : 1000 : 0"
       inkscape:vp_x="0 : 0.5 : 1"
       sodipodi:type="inkscape:persp3d" />
    <inkscape:perspective
       id="perspective6064"
       inkscape:persp3d-origin="0.5 : 0.33333333 : 1"
       inkscape:vp_z="1 : 0.5 : 1"
       inkscape:vp_y="0 : 1000 : 0"
       inkscape:vp_x="0 : 0.5 : 1"
       sodipodi:type="inkscape:persp3d" />
    <inkscape:perspective
       id="perspective6086"
       inkscape:persp3d-origin="0.5 : 0.33333333 : 1"
       inkscape:vp_z="1 : 0.5 : 1"
       inkscape:vp_y="0 : 1000 : 0"
       inkscape:vp_x="0 : 0.5 : 1"
       sodipodi:type="inkscape:persp3d" />
    <inkscape:perspective
       id="perspective6108"
       inkscape:persp3d-origin="0.5 : 0.33333333 : 1"
       inkscape:vp_z="1 : 0.5 : 1"
       inkscape:vp_y="0 : 1000 : 0"
       inkscape:vp_x="0 : 0.5 : 1"
       sodipodi:type="inkscape:persp3d" />
    <inkscape:perspective
       id="perspective6138"
       inkscape:persp3d-origin="0.5 : 0.33333333 : 1"
       inkscape:vp_z="1 : 0.5 : 1"
       inkscape:vp_y="0 : 1000 : 0"
       inkscape:vp_x="0 : 0.5 : 1"
       sodipodi:type="inkscape:persp3d" />
  </defs>
  <sodipodi:namedview
     id="base"
     pagecolor="#ffffff"
     bordercolor="#666666"
     borderopacity="1.0"
     gridtolerance="10000"
     guidetolerance="10"
     objecttolerance="10"
     inkscape:pageopacity="0.0"
     inkscape:pageshadow="2"
     inkscape:zoom="10.218833"
     inkscape:cx="2.5533821"
     inkscape:cy="86.262095"
     inkscape:document-units="px"
     inkscape:current-layer="layer1"
     showgrid="true"
     showguides="true"
     inkscape:guide-bbox="true"
     inkscape:window-width="1024"
     inkscape:window-height="723"
     inkscape:window-x="-4"
     inkscape:window-y="-3"
     inkscape:window-maximized="1">
    <inkscape:grid
       type="xygrid"
       id="grid2587"
       visible="true"
       enabled="true"
       empspacing="5"
       snapvisiblegridlinesonly="true" />
  </sodipodi:namedview>
  <metadata
     id="metadata2582">
    <rdf:RDF>
      <cc:Work
         rdf:about="">
        <dc:format>image/svg+xml</dc:format>
        <dc:type
           rdf:resource="http://purl.org/dc/dcmitype/StillImage" />
        <dc:title />
      </cc:Work>
    </rdf:RDF>
  </metadata>
  <g
     inkscape:groupmode="layer"
     id="layer4"
     inkscape:label="BG"
     sodipodi:insensitive="true">
    <rect
       style="fill:#2c72c7;fill-opacity:1;stroke:none"
       id="rect3448"
       width="140"
       height="140"
       x="-20"
       y="-15" />
  </g>
  <g
     inkscape:label="Layer 1"
     inkscape:groupmode="layer"
     id="layer1">
    <rect
       style="fill:#262626;fill-opacity:1;stroke:none"
       id="center"
       width="80"
       height="80"
       x="10"
       y="-90"
       transform="matrix(0,1,-1,0,0,0)"
       inkscape:label="#rect3388" />
    <rect
       style="fill:#006e29;fill-opacity:0.58823529;stroke:none"
       id="hint-stretch-borders"
       width="10"
       height="10"
       x="-35"
       y="-15"
       inkscape:label="#rect4179" />
    <g
       id="topleft"
       inkscape:label="#g2899">
      <g
         transform="translate(35.003051,-4.9969494)"
         inkscape:label="#g3390"
         style="fill:#262626;fill-opacity:1;stroke:none"
         id="sdvfb">
        <path
           sodipodi:nodetypes="cccccc"
           id="path2589"
           d="M -40,4.9999998 C -40,2.2399999 -37.76,-5.4138255e-8 -35,0 l 5,0 0,10 -10,0 0,-5.0000002 z"
           style="fill:#262626;fill-opacity:1;stroke:none" />
        <path
           sodipodi:nodetypes="ccccccccc"
           style="fill:#262626;fill-opacity:1;stroke:none"
           d="m -35,1 c -2.208,0 -4,1.7919999 -4,4 l 0,5 1,0 0,-5 c 0,-1.6560001 1.344,-3 3,-3 l 5,0 0,-1 -5,0 z"
           id="path3363" />
      </g>
      <path
         id="path5984"
         d="m -4.9969493,4 0,-4.4984747 c 0,0 0,-4.4984747 4.49847465,-4.4984747 4.49847465,0 4.49847465,0 4.49847465,0"
         style="fill:none;stroke:#000000;stroke-width:2;stroke-linecap:square;stroke-linejoin:miter;stroke-miterlimit:4;stroke-opacity:1;stroke-dasharray:none" />
    </g>
    <g
       id="topright"
       inkscape:label="#g3780">
      <g
         transform="translate(5,-5)"
         inkscape:label="#g3394"
         style="fill:#262626;fill-opacity:1;stroke:none"
         id="kfghvfjvj">
        <path
           sodipodi:nodetypes="cccccc"
           id="path3368"
           d="M 95,-4.9038277e-8 C 97.76,7.9053885e-8 100,2.2400001 100,5.0000001 L 100,10 90,10 90,0 95,-4.9038277e-8 z"
           style="fill:#262626;fill-opacity:1;stroke:none" />
      </g>
      <path
         id="path5984-5"
         d="m 96,-5 4.5007,0 c 0,0 4.50071,0 4.50071,4.5 0,4.5 0,4.5 0,4.5"
         style="fill:none;stroke:#000000;stroke-width:2;stroke-linecap:square;stroke-linejoin:miter;stroke-miterlimit:4;stroke-opacity:1;stroke-dasharray:none" />
    </g>
    <g
       id="bottomleft"
       inkscape:label="#g3824">
      <g
         transform="translate(-5,5)"
         inkscape:label="#g3402"
         style="fill:#262626;fill-opacity:1;stroke:none"
         id="dfgb">
        <path
           sodipodi:nodetypes="cccccc"
           id="path3372"
           d="M 5,100 C 2.24,100 0,97.76 0,95 l 0,-5 10,0 0,10 -5,0 z"
           style="fill:#262626;fill-opacity:1;stroke:none" />
      </g>
      <path
         id="path5984-7"
         d="m 4,104.99667 -4.5,0 c 0,0 -4.5,0 -4.5,-4.49834 C -5,96 -5,96 -5,96"
         style="fill:none;stroke:#000000;stroke-width:2;stroke-linecap:square;stroke-linejoin:miter;stroke-miterlimit:4;stroke-opacity:1;stroke-dasharray:none" />
    </g>
    <g
       id="bottomright"
       inkscape:label="#g3802">
      <g
         transform="translate(-15,4.9819549)"
         inkscape:label="#g3398"
         style="fill:#262626;fill-opacity:1;stroke:none"
         id="asdf">
        <path
           sodipodi:nodetypes="cccccc"
           id="path3376"
           d="m 120,95 c 0,2.76 -2.24,5 -5,5 l -5,0 0,-10 10,0 0,5 z"
           style="fill:#262626;fill-opacity:1;stroke:none" />
        <path
           sodipodi:nodetypes="ccccccccc"
           id="path3378"
           d="m 115,99 c 2.208,0 4,-1.792 4,-4 l 0,-5 -1,0 0,5 c 0,1.656 -1.344,3 -3,3 l -5,0 0,1 5,0 z"
           style="fill:#262626;fill-opacity:1;stroke:none" />
        <path
           sodipodi:nodetypes="ccccccccc"
           id="path3442"
           d="m 119,95 c 0,2.208 -1.792,4 -4,4 l -5,0 0,1 5,0 c 2.76,0 5,-2.24 5,-5 l 0,-5 -1,0 0,5 z"
           style="fill:#262626;fill-opacity:1;stroke:none" />
      </g>
      <path
         id="path5984-2"
         d="m 104.99905,96 0,4.53516 c 0,0 0,4.53517 -4.49952,4.53517 -4.49953,0 -4.49953,0 -4.49953,0"
         style="fill:none;stroke:#000000;stroke-width:2;stroke-linecap:square;stroke-linejoin:miter;stroke-miterlimit:4;stroke-opacity:1;stroke-dasharray:none" />
    </g>
    <g
       id="right"
       inkscape:label="#g3790">
      <g
         style="fill:#262626;fill-opacity:1;stroke:none"
         inkscape:label="#g3434"
         id="asdfggggggggh"
         transform="matrix(-1,0,0,-0.8888889,105,94.444445)">
        <rect
           style="fill:#262626;fill-opacity:1;stroke:none"
           id="rect3436"
           width="90"
           height="10"
           x="5"
           y="-10"
           transform="matrix(0,1,-1,0,0,0)" />
        <rect
           transform="matrix(0,1,-1,0,0,0)"
           y="-2"
           x="5"
           height="1"
           width="90"
           id="rect3438"
           style="fill:#262626;fill-opacity:1;stroke:none" />
        <rect
           style="fill:#262626;fill-opacity:1;stroke:none"
           id="rect3440"
           width="90"
           height="1"
           x="5"
           y="-1"
           transform="matrix(0,1,-1,0,0,0)" />
      </g>
      <path
         sodipodi:nodetypes="ccc"
         id="path6054-7"
         d="m 105,89 0,-78 0,0"
         style="fill:none;stroke:#000000;stroke-width:2;stroke-linecap:square;stroke-linejoin:miter;stroke-miterlimit:4;stroke-opacity:1;stroke-dasharray:none" />
    </g>
    <g
       id="left"
       inkscape:label="#g2889">
      <g
         style="fill:#262626;fill-opacity:1;stroke:none"
         transform="matrix(1,0,0,0.8888888,35.01395,5.5555558)"
         inkscape:label="#g3410"
         id="asdfgyhj">
        <rect
           style="fill:#262626;fill-opacity:1;stroke:none"
           id="rect3384"
           width="90"
           height="10"
           x="5"
           y="30"
           transform="matrix(0,1,-1,0,0,0)" />
        <rect
           transform="matrix(0,1,-1,0,0,0)"
           y="38"
           x="5"
           height="1"
           width="90"
           id="rect3408"
           style="fill:#262626;fill-opacity:1;stroke:none" />
      </g>
      <path
         sodipodi:nodetypes="ccc"
         id="path6054-7-5"
         d="m -4.9838683,89 0,-78 0,0"
         style="fill:none;stroke:#000000;stroke-width:2;stroke-linecap:square;stroke-linejoin:miter;stroke-miterlimit:4;stroke-opacity:1;stroke-dasharray:none" />
    </g>
    <g
       id="top"
       inkscape:label="#g3849">
      <g
         style="fill:#262626;fill-opacity:1;stroke:none"
         inkscape:label="#g3414"
         transform="matrix(0,1,-0.8888889,0,94.444444,14.978585)"
         id="dnjvdfvj">
        <rect
           transform="matrix(0,1,-1,0,0,0)"
           y="10"
           x="5"
           height="10"
           width="90"
           id="rect3416"
           style="fill:#262626;fill-opacity:1;stroke:none" />
        <rect
           style="fill:#262626;fill-opacity:1;stroke:none"
           id="rect3418"
           width="90"
           height="1"
           x="5"
           y="18"
           transform="matrix(0,1,-1,0,0,0)" />
      </g>
      <path
         sodipodi:nodetypes="ccc"
         id="path6054-7-5-7"
         d="m 89,-5.0234737 -78,0 0,0"
         style="fill:none;stroke:#000000;stroke-width:2;stroke-linecap:square;stroke-linejoin:miter;stroke-miterlimit:4;stroke-opacity:1;stroke-dasharray:none" />
    </g>
    <g
       id="bottom"
       inkscape:label="#g3814">
      <g
         style="fill:#262626;fill-opacity:1;stroke:none"
         inkscape:label="#g3426"
         transform="matrix(0,-1,0.9444444,0,0.27777797,85.107143)"
         id="qwedfgbgn">
        <rect
           transform="matrix(0,1,-1,0,0,0)"
           y="10"
           x="10.294118"
           height="10"
           width="84.705879"
           id="rect3428"
           style="fill:#262626;fill-opacity:1;stroke:none" />
        <rect
           style="fill:#262626;fill-opacity:1;stroke:none"
           id="rect3430"
           width="84.705879"
           height="1"
           x="10.294118"
           y="18"
           transform="matrix(0,1,-1,0,0,0)" />
        <rect
           transform="matrix(0,1,-1,0,0,0)"
           y="19"
           x="10.294118"
           height="1"
           width="84.705879"
           id="rect3432"
           style="fill:#262626;fill-opacity:1;stroke:none" />
      </g>
      <path
         sodipodi:nodetypes="ccc"
         id="path6054-7-5-7-3"
         d="m 89,105.10509 -78,0 0,0"
         style="fill:none;stroke:#000000;stroke-width:2;stroke-linecap:square;stroke-linejoin:miter;stroke-miterlimit:4;stroke-opacity:1;stroke-dasharray:none" />
    </g>
  </g>
  <g
     inkscape:groupmode="layer"
     id="layer5"
     inkscape:label="Guides"
     style="opacity:0.17167382" />
</svg>
